# xmcd
#
# Track frame offsets: 
#        150
#        10955
#        19643
#        30703
#        41326
#        52575
#        63078
#        72655
#        80939
#        93010
#        105315
#        115467
#        125280
#        135144
#        144674
#        156167
#        165870
#        175375
#        188448
#        198670
#        207730
#        217785
#        228725
#        237555
#        248840
#        257195
#        267482
#        279735
#        290281
#        300751
#
# Disc length: 4151 seconds
#
# Revision: 0
# Processed by: cddbd v1.5.1PL0 Copyright (c) Steve Scherf et al.
# Submitted via: ExactAudioCopy v0.95a4
#
DISCID=a110351e
DTITLE=Various Artist - Great Dixie Boppin' Hillbillies (6666)
DYEAR=1900
DGENRE=Country
TTITLE0=Frank Evans and His Top Notchers - Pull The Shades Down Ma
TTITLE1=Dave Woolum - Done Gone And Done It
TTITLE2=Little Jody Rainwater and The Jamboree Gang - The Man That Wrote
TTITLE2=Home Sweet Home (Never Was A Married Man)
TTITLE3=Jack Cardwell - One Every Day
TTITLE4=Carvis Turney and His Rainbow Valley Boys - Honky Tonk Ways
TTITLE5=Buddy Livingston and His All Girl Band - Back When She Was Young
TTITLE6=Tony Farr and His Singing Guitars - There's No Sense In Marrying
TTITLE6=Me
TTITLE7=High Pockets and (Manuel Dickerson) The Sun Valley Playboys - Bo
TTITLE7=y Crazy Jane
TTITLE8=High Pockets and (Manuel Dickerson) The Sun Valley Playboys - Th
TTITLE8=en We'll Be Happy
TTITLE9=Jessie Coates and The Dixie Playboys - You Gotta Be Good
TTITLE10=Jessie Coates and The Dixie Playboys - Nobody Can Take My Baby
TTITLE11=Eddie Eddings and The Country Gentlemen - Smoochin'
TTITLE12=Eddie Eddings and The Country Gentlemen - Country Favorites (In
TTITLE12=str.)
TTITLE13=Hal Payne - Honky Tonk Stomp
TTITLE14=Jack Morris - Cooing The Wrong Pigeon
TTITLE15=Frank Ole'Shay - My Baby's Not Here (In Town Tonight)
TTITLE16=Frank Ole'Shay - Love, Love, Love Me Honey Do
TTITLE17=Frank Evans and The Top Notchers - What Is It (That I'm Too You
TTITLE17=ng To Know)
TTITLE18=Dave Woolum - You're So Nice
TTITLE19=Jack Cardwell - Hey, Hey Baby
TTITLE20=Melvin Price and His Santa Fe Rangers - The Pace That Kills
TTITLE21=Howard Western and His Western Swing Band - Sawmill Boogie Blue
TTITLE21=s
TTITLE22=Al Sims and The Alpino Two - Little Red Caboose
TTITLE23=Ernest And Agnes Jones - Brown Eyes And Brown Hair
TTITLE24=Ernest And Agnes Jones - Falling In Love Again
TTITLE25=Tennessee Jim and His Hillbilly Playboys - Don't Steal Her
TTITLE26=Jerry and The String Trio - Judgement Day
TTITLE27=Jerry and The String Trio - Lead Me To The Promised Land
TTITLE28=Eddie Eddings and The Country Gentlemen - Country Style Boogie 
TTITLE28=(Instr.)
TTITLE29=Don Johnson and The Mountain Wizards - Briar Hopper
EXTD=
EXTT0=
EXTT1=
EXTT2=
EXTT3=
EXTT4=
EXTT5=
EXTT6=
EXTT7=
EXTT8=
EXTT9=
EXTT10=
EXTT11=
EXTT12=
EXTT13=
EXTT14=
EXTT15=
EXTT16=
EXTT17=
EXTT18=
EXTT19=
EXTT20=
EXTT21=
EXTT22=
EXTT23=
EXTT24=
EXTT25=
EXTT26=
EXTT27=
EXTT28=
EXTT29=
PLAYORDER=
